#!OML:ASF F:\VICON\USERDATA\INSTALL\rory3\rory3.ASF
:FULLY-SPECIFIED
:DEGREES
2297
root 0.881431 17.3768 4.19269 178.697 -109.122 -176.848
lowerback 2.57799 1.33783 -2.31228
upperback 0.184114 1.72318 0.604086
thorax -1.34275 0.875531 1.85054
lowerneck -18.2265 -7.51131 -15.7818
upperneck -23.589 -7.58519 11.0243
head -3.35305 -3.36465 5.95157
rclavicle 2.16054e-014 1.98785e-016
rhumerus -30.5771 -10.576 -76.4092
rradius 19.6791
rwrist 16.3777
rhand -19.4269 3.67445
rfingers 7.12502
rthumb 6.8931 -26.1933
lclavicle 2.16054e-014 1.98785e-016
lhumerus 6.8495 13.695 23.2184
lradius 97.5937
lwrist 18.752
lhand -15.5015 21.5988
lfingers 7.12502
lthumb 10.681 51.3073
rfemur -18.6589 -0.261963 16.9249
rtibia 42.7729
rfoot -23.8756 -1.50443
rtoes 2.25371
lfemur -9.56467 -4.81932 -20.4897
ltibia 33.3772
lfoot -22.2651 -9.65296
ltoes -5.75051
2298
root 0.874426 17.3629 4.16747 178.059 -109.238 -176.293
lowerback 2.6367 1.3384 -2.55827
upperback 0.170969 1.71939 0.913237
thorax -1.40584 0.877022 2.30459
lowerneck -18.0947 -7.36967 -16.0965
upperneck -23.5526 -7.37101 10.9503
head -3.38364 -3.23287 5.99595
rclavicle 3.91482e-014 -4.77083e-015
rhumerus -30.9965 -11.2161 -75.0318
rradius 19.3841
rwrist 16.5319
rhand -19.9303 3.27659
rfingers 7.12502
rthumb 6.4071 -26.6065
lclavicle 3.91482e-014 -4.77083e-015
lhumerus 9.15528 14.9905 21.8426
lradius 96.0935
lwrist 19.0383
lhand -15.2263 21.546
lfingers 7.12502
lthumb 10.9464 51.2406
rfemur -18.7603 -0.886911 16.7981
rtibia 43.3366
rfoot -24.4837 -1.21197
rtoes 2.39588
lfemur -9.42169 -4.94968 -20.6195
ltibia 33.3563
lfoot -22.6121 -9.30698
ltoes -6.86482
2299
root 0.869104 17.348 4.14178 177.277 -109.421 -175.519
lowerback 2.66303 1.31796 -2.85584
upperback 0.152482 1.6852 1.11277
thorax -1.45231 0.863433 2.67758
lowerneck -17.954 -7.23287 -16.2333
upperneck -23.6057 -7.18637 10.9474
head -3.43844 -3.13164 6.03617
rclavicle -2.66371e-014 2.38542e-015
rhumerus -31.3613 -10.6376 -74.4723
rradius 19.4998
rwrist 14.4145
rhand -21.2833 2.02884
rfingers 7.12502
rthumb 5.10081 -27.8898
lclavicle -2.66371e-014 2.38542e-015
lhumerus 11.5479 16.2218 20.2797
lradius 94.2527
lwrist 19.3492
lhand -15.2243 21.1076
lfingers 7.12502
lthumb 10.9484 50.8021
rfemur -18.9357 -1.80154 16.6194
rtibia 43.9305
rfoot -25.1767 -1.51416
rtoes 0.146828
lfemur -9.36402 -5.21849 -20.7833
ltibia 33.3597
lfoot -22.7159 -9.51672
ltoes -5.6524
2300
root 0.86144 17.3308 4.11561 176.348 -109.531 -174.547
lowerback 2.66787 1.28053 -3.25684
upperback 0.0956193 1.62558 1.30785
thorax -1.52648 0.839265 3.10596
lowerneck -17.8009 -7.08248 -16.459
upperneck -23.6569 -6.97306 10.9631
head -3.49546 -3.01071 6.09906
rclavicle 5.42931e-014 1.98785e-015
rhumerus -31.7465 -11.1237 -73.2224
rradius 19.5033
rwrist 14.5936
rhand -21.5206 1.97756
rfingers 7.12502
rthumb 4.87172 -27.9464
lclavicle 5.42931e-014 1.98785e-015
lhumerus 13.7952 17.3655 18.6571
lradius 92.2061
lwrist 19.5936
lhand -15.8412 20.6834
lfingers 7.12502
lthumb 10.3533 50.4085
rfemur -19.2091 -2.76661 16.3749
rtibia 44.5641
rfoot -25.7373 -2.60779
rtoes -3.34718
lfemur -9.33404 -5.47213 -21.0421
ltibia 33.3496
lfoot -22.9027 -9.52297
ltoes -5.64105
2301
root 0.85627 17.3101 4.08946 175.335 -109.591 -173.537
lowerback 2.78271 1.24234 -3.60541
upperback 0.0437392 1.56213 1.46877
thorax -1.65341 0.814147 3.46844
lowerneck -17.7092 -6.83348 -16.4453
upperneck -23.7416 -6.69365 10.7226
head -3.58711 -2.86741 6.04302
rclavicle 9.02979e-014 -4.77083e-015
rhumerus -32.1224 -12.7555 -71.3403
rradius 19.3509
rwrist 16.7835
rhand -20.8542 2.91072
rfingers 7.12502
rthumb 5.5151 -26.9975
lclavicle 9.02979e-014 -4.77083e-015
lhumerus 15.943 18.6502 17.352
lradius 90.2651
lwrist 19.4919
lhand -16.3917 20.8279
lfingers 7.12502
lthumb 9.82226 50.5789
rfemur -19.4481 -3.45043 16.0557
rtibia 45.2153
rfoot -26.313 -3.54361
rtoes -3.11629
lfemur -9.2747 -5.72859 -21.3572
ltibia 33.3702
lfoot -23.1618 -9.12797
ltoes -6.8128
2302
root 0.852562 17.2879 4.06118 173.985 -109.586 -172.277
lowerback 3.04977 1.24993 -4.02872
upperback -0.00576516 1.54983 1.57473
thorax -1.86781 0.817651 3.81174
lowerneck -17.5987 -6.51271 -16.2673
upperneck -23.771 -6.34279 10.4573
head -3.67515 -2.70026 5.95266
rclavicle 2.37299e-014 -5.56597e-015
rhumerus -32.5928 -13.2453 -70.1207
rradius 19.6866
rwrist 16.6052
rhand -20.8613 2.9491
rfingers 7.12502
rthumb 5.5083 -26.9593
lclavicle 2.37299e-014 -5.56597e-015
lhumerus 17.848 20.1611 16.1422
lradius 88.4653
lwrist 19.6129
lhand -16.6181 20.7299
lfingers 7.12502
lthumb 9.60383 50.491
rfemur -19.5679 -3.88352 15.5935
rtibia 45.844
rfoot -27.1823 -4.04168
rtoes 0.117184
lfemur -9.1476 -5.81999 -21.7223
ltibia 33.4544
lfoot -23.3015 -8.999
ltoes -7.25094
2303
root 0.849003 17.2708 4.03171 173.137 -109.58 -171.567
lowerback 3.33217 1.25027 -4.29977
upperback -0.0516452 1.53208 1.76862
thorax -2.08491 0.818332 4.16133
lowerneck -17.5001 -6.3229 -16.426
upperneck -23.6871 -6.06577 10.5206
head -3.68809 -2.55424 6.01426
rclavicle 2.65378e-014 5.56597e-015
rhumerus -33.1406 -12.2122 -69.4376
rradius 20.539
rwrist 14.385
rhand -21.0739 2.22576
rfingers 7.12502
rthumb 5.30296 -27.6879
lclavicle 2.65378e-014 5.56597e-015
lhumerus 19.7393 21.7163 15.1013
lradius 86.3752
lwrist 19.9794
lhand -16.9654 20.3848
lfingers 7.12502
lthumb 9.26875 50.1611
rfemur -19.6421 -4.43034 15.3178
rtibia 46.4162
rfoot -28.248 -4.32653
rtoes 3.5906
lfemur -9.0737 -5.8602 -21.8544
ltibia 33.6327
lfoot -23.2992 -9.22418
ltoes -6.96202
2304
root 0.845361 17.2571 4.00396 172.887 -109.561 -171.427
lowerback 3.57792 1.26393 -4.39586
upperback -0.114742 1.54114 2.05061
thorax -2.29994 0.831919 4.50374
lowerneck -17.5694 -6.27112 -16.8712
upperneck -23.4562 -5.88488 10.7147
head -3.60919 -2.43665 6.15008
rclavicle -4.9398e-014 -2.3059e-014
rhumerus -33.5772 -11.2108 -68.6773
rradius 21.2714
rwrist 12.2227
rhand -21.2277 2.21202
rfingers 7.12502
rthumb 5.15446 -27.7053
lclavicle -4.9398e-014 -2.3059e-014
lhumerus 22.0166 23.0968 14.3613
lradius 83.7685
lwrist 20.1072
lhand -17.4508 20.2582
lfingers 7.12502
lthumb 8.80032 50.0548
rfemur -19.7308 -5.15929 15.2921
rtibia 46.9037
rfoot -28.9809 -4.94486
rtoes 4.55687
lfemur -9.1347 -6.17456 -21.8114
ltibia 33.9283
lfoot -23.1473 -9.29699
ltoes -6.41199
2305
root 0.842949 17.2371 3.97773 172.375 -109.552 -170.999
lowerback 3.81434 1.30532 -4.54405
upperback -0.156339 1.58491 2.29863
thorax -2.49249 0.86283 4.83957
lowerneck -17.6291 -6.22446 -17.2892
upperneck -23.3595 -5.74032 10.7798
head -3.58062 -2.33471 6.24385
rclavicle -4.16951e-014 1.66979e-014
rhumerus -33.7422 -10.7833 -67.8308
rradius 21.7822
rwrist 10.6184
rhand -21.6521 2.12596
rfingers 7.12502
rthumb 4.74472 -27.8009
lclavicle -4.16951e-014 1.66979e-014
lhumerus 24.4502 24.4558 13.6305
lradius 80.9599
lwrist 20.3956
lhand -17.4669 20.3529
lfingers 7.12502
lthumb 8.78484 50.1501
rfemur -19.7965 -5.98543 15.1869
rtibia 47.3286
rfoot -29.3149 -5.49854
rtoes 4.25416
lfemur -9.2809 -6.43576 -21.8967
ltibia 34.3451
lfoot -23.119 -9.25754
ltoes -5.95221
2306
root 0.840913 17.2166 3.95344 171.841 -109.553 -170.626
lowerback 4.1549 1.34415 -4.60051
upperback -0.220277 1.62486 2.53043
thorax -2.76394 0.893567 5.10524
lowerneck -17.4093 -6.09832 -17.6315
upperneck -23.4161 -5.56862 10.7001
head -3.65227 -2.22215 6.29208
rclavicle -1.58034e-014 6.36111e-015
rhumerus -33.8876 -10.5939 -66.8949
rradius 22.2793
rwrist 9.63418
rhand -21.9899 1.88808
rfingers 7.12502
rthumb 4.41852 -28.0458
lclavicle -1.58034e-014 6.36111e-015
lhumerus 26.6829 25.7252 12.942
lradius 78.2099
lwrist 20.8329
lhand -17.1705 20.2821
lfingers 7.12502
lthumb 9.07081 50.067
rfemur -19.7633 -6.90062 15.0779
rtibia 47.7091
rfoot -29.3542 -5.69574
rtoes 4.42363
lfemur -9.36557 -6.45128 -21.9569
ltibia 34.8212
lfoot -23.1732 -9.38061
ltoes -5.76806
